<svg width="242.689" height="32.547" viewBox="0 0 242.689 32.547" xmlns="http://www.w3.org/2000/svg"><path fill="context-fill #20123a" d="M 47.927 17.186 L 47.927 32.136 L 41.672 32.136 L 41.672 18.744 A 9.804 9.804 0 0 0 41.522 16.948 Q 40.959 13.94 38.269 13.789 A 5.175 5.175 0 0 0 37.98 13.781 A 6.054 6.054 0 0 0 36.516 13.947 A 3.762 3.762 0 0 0 34.187 15.566 A 5.587 5.587 0 0 0 33.558 16.936 Q 33.115 18.325 33.035 20.4 A 24.672 24.672 0 0 0 33.018 21.349 L 33.018 32.136 L 26.763 32.136 L 26.763 0.226 L 33.018 0.226 L 33.018 6.727 A 15.638 15.638 0 0 1 33.013 7.083 Q 32.991 7.978 32.883 10.126 A 393.366 393.366 0 0 1 32.874 10.295 L 32.73 12.141 L 33.059 12.141 A 6.854 6.854 0 0 1 38.082 8.896 A 10.639 10.639 0 0 1 39.703 8.778 A 11.968 11.968 0 0 1 42.091 9.001 Q 43.497 9.287 44.573 9.942 A 6.257 6.257 0 0 1 45.835 10.951 Q 47.688 12.877 47.899 16.282 A 14.563 14.563 0 0 1 47.927 17.186 Z M 103.134 17.186 L 103.134 32.136 L 96.879 32.136 L 96.879 18.744 Q 96.879 16.263 95.997 15.022 Q 95.115 13.781 93.188 13.781 A 6.155 6.155 0 0 0 91.723 13.944 A 3.763 3.763 0 0 0 89.394 15.535 A 5.358 5.358 0 0 0 88.777 16.856 Q 88.348 18.178 88.252 20.16 A 24.698 24.698 0 0 0 88.225 21.349 L 88.225 32.136 L 81.97 32.136 L 81.97 9.208 L 86.748 9.208 L 87.589 12.141 L 87.938 12.141 A 6.61 6.61 0 0 1 90.819 9.629 A 9.127 9.127 0 0 1 93.512 8.869 A 11.608 11.608 0 0 1 94.992 8.778 Q 97.929 8.778 99.827 9.945 A 6.201 6.201 0 0 1 101.062 10.941 Q 102.86 12.818 103.097 16.139 A 14.655 14.655 0 0 1 103.134 17.186 Z M 75.407 32.136 L 70.608 32.136 L 69.768 29.203 L 69.439 29.203 A 6.501 6.501 0 0 1 66.955 31.49 A 7.928 7.928 0 0 1 66.589 31.674 A 9.053 9.053 0 0 1 63.877 32.452 A 11.523 11.523 0 0 1 62.385 32.546 A 12.025 12.025 0 0 1 60.054 32.335 Q 58.698 32.066 57.654 31.458 A 6.1 6.1 0 0 1 56.294 30.382 A 6.985 6.985 0 0 1 54.701 27.573 Q 54.243 26.078 54.243 24.158 L 54.243 9.208 L 60.498 9.208 L 60.498 22.6 Q 60.498 25.081 61.38 26.322 Q 62.262 27.563 64.189 27.563 A 6.155 6.155 0 0 0 65.654 27.4 A 3.763 3.763 0 0 0 67.983 25.809 A 5.358 5.358 0 0 0 68.6 24.488 Q 69.029 23.166 69.125 21.184 A 24.698 24.698 0 0 0 69.152 19.995 L 69.152 9.208 L 75.407 9.208 L 75.407 32.136 Z M 218.818 32.136 L 226.591 20.426 L 219.208 9.208 L 226.304 9.208 L 230.754 16.509 L 235.245 9.208 L 242.341 9.208 L 234.876 20.426 L 242.689 32.136 L 235.573 32.136 L 230.754 24.281 L 225.914 32.136 L 218.818 32.136 Z M 123.601 12.141 L 123.806 12.141 A 31.778 31.778 0 0 1 123.483 10.004 Q 123.362 8.943 123.339 7.998 A 17.888 17.888 0 0 1 123.334 7.568 L 123.334 0.226 L 129.609 0.226 L 129.609 32.136 L 124.811 32.136 L 123.601 29.162 L 123.334 29.162 A 6.886 6.886 0 0 1 118.392 32.427 A 9.827 9.827 0 0 1 116.833 32.546 A 8.333 8.333 0 0 1 113.836 32.028 Q 111.856 31.271 110.486 29.408 A 10.782 10.782 0 0 1 108.869 26.068 Q 108.179 23.752 108.179 20.713 Q 108.179 16.891 109.257 14.213 A 10.141 10.141 0 0 1 110.527 11.925 Q 112.875 8.778 116.997 8.778 A 8.837 8.837 0 0 1 119.898 9.231 A 7.271 7.271 0 0 1 123.601 12.141 Z M 14.499 7.444 L 14.499 32.136 L 8.142 32.136 L 8.142 7.444 L 0 7.444 L 0 2.153 L 22.641 2.153 L 22.641 7.444 L 14.499 7.444 Z M 192.712 9.208 L 192.712 13.904 L 187.298 13.904 L 187.298 32.136 L 181.043 32.136 L 181.043 13.904 L 177.598 13.904 L 177.598 10.89 L 181.043 9.208 L 181.043 7.527 A 12.593 12.593 0 0 1 181.204 5.439 Q 181.6 3.088 182.971 1.805 A 5.758 5.758 0 0 1 184.919 0.636 Q 186.597 0.01 189.067 0 A 19.794 19.794 0 0 1 189.144 0 Q 192.384 0 194.906 0.964 L 193.307 5.558 A 13.874 13.874 0 0 0 191.601 5.131 Q 190.67 4.963 189.82 4.963 A 3.537 3.537 0 0 0 189.098 5.032 Q 188.312 5.196 187.893 5.753 A 2.86 2.86 0 0 0 187.392 6.862 Q 187.298 7.282 187.298 7.773 L 187.298 9.208 L 192.712 9.208 Z M 155.88 19.195 L 155.88 22.231 L 141.094 22.231 A 8.122 8.122 0 0 0 141.336 23.961 Q 141.637 25.12 142.301 25.971 A 4.881 4.881 0 0 0 142.673 26.394 A 4.833 4.833 0 0 0 144.979 27.679 Q 145.748 27.874 146.66 27.889 A 9.311 9.311 0 0 0 146.815 27.891 A 17.801 17.801 0 0 0 149.766 27.654 A 15.674 15.674 0 0 0 150.732 27.46 A 17.795 17.795 0 0 0 152.982 26.768 A 22.615 22.615 0 0 0 154.588 26.086 L 154.588 30.926 Q 152.947 31.746 151.081 32.146 A 15.934 15.934 0 0 1 149.566 32.39 Q 148.717 32.487 147.743 32.524 A 32.366 32.366 0 0 1 146.528 32.546 A 16.156 16.156 0 0 1 143.008 32.185 Q 140.597 31.647 138.821 30.306 A 9.703 9.703 0 0 1 137.874 29.49 Q 134.909 26.584 134.764 21.377 A 19.455 19.455 0 0 1 134.757 20.836 Q 134.757 16.586 136.324 13.758 A 9.581 9.581 0 0 1 137.638 11.925 A 9.462 9.462 0 0 1 143.024 9.006 A 13.901 13.901 0 0 1 145.605 8.778 A 13.711 13.711 0 0 1 148.693 9.105 Q 151.396 9.729 153.173 11.546 Q 155.88 14.315 155.88 19.195 Z M 175.875 8.962 L 175.403 14.827 A 5.345 5.345 0 0 0 174.733 14.695 Q 174.402 14.649 174.025 14.632 A 10.404 10.404 0 0 0 173.558 14.622 A 9.382 9.382 0 0 0 171.695 14.796 Q 170.584 15.021 169.724 15.538 A 5.129 5.129 0 0 0 168.892 16.16 A 5.023 5.023 0 0 0 167.384 18.857 A 7.519 7.519 0 0 0 167.221 20.467 L 167.221 32.136 L 160.966 32.136 L 160.966 9.208 L 165.703 9.208 L 166.626 13.064 L 166.934 13.064 A 8.619 8.619 0 0 1 169.815 9.957 Q 171.63 8.778 173.763 8.778 Q 174.678 8.778 175.37 8.873 A 6.526 6.526 0 0 1 175.875 8.962 Z M 217.137 20.631 Q 217.137 26.23 214.184 29.388 A 9.675 9.675 0 0 1 209.028 32.238 A 14.452 14.452 0 0 1 205.96 32.546 Q 202.658 32.546 200.136 31.1 A 9.621 9.621 0 0 1 196.26 26.947 A 12.606 12.606 0 0 1 195.105 23.262 A 16.776 16.776 0 0 1 194.906 20.631 Q 194.906 15.012 197.839 11.895 A 9.564 9.564 0 0 1 202.712 9.146 A 14.522 14.522 0 0 1 206.083 8.778 A 12.893 12.893 0 0 1 209.281 9.159 A 10.567 10.567 0 0 1 211.907 10.213 A 9.582 9.582 0 0 1 215.783 14.335 A 12.374 12.374 0 0 1 216.913 17.851 A 16.583 16.583 0 0 1 217.137 20.631 Z M 201.284 20.631 A 16.609 16.609 0 0 0 201.383 22.506 Q 201.616 24.553 202.402 25.778 A 3.64 3.64 0 0 0 204.835 27.406 A 5.928 5.928 0 0 0 206.042 27.522 A 5.648 5.648 0 0 0 207.436 27.361 A 3.54 3.54 0 0 0 209.641 25.789 A 5.891 5.891 0 0 0 210.287 24.327 Q 210.738 22.827 210.738 20.631 A 16.869 16.869 0 0 0 210.651 18.851 Q 210.427 16.748 209.631 15.525 A 3.588 3.588 0 0 0 207.325 13.961 A 5.928 5.928 0 0 0 206.001 13.822 Q 203.499 13.822 202.392 15.514 A 5.611 5.611 0 0 0 201.744 16.936 Q 201.284 18.424 201.284 20.631 Z M 123.765 21.431 L 123.765 20.754 A 18.972 18.972 0 0 0 123.684 18.941 Q 123.51 17.133 122.957 16.02 A 4.121 4.121 0 0 0 122.626 15.463 A 3.612 3.612 0 0 0 120.591 14.072 Q 119.967 13.896 119.21 13.869 A 7.839 7.839 0 0 0 118.925 13.863 A 3.923 3.923 0 0 0 117.326 14.179 Q 116.344 14.612 115.674 15.637 Q 114.866 16.874 114.622 18.894 A 15.86 15.86 0 0 0 114.516 20.795 Q 114.516 24.179 115.685 25.871 A 3.727 3.727 0 0 0 118.373 27.521 A 5.036 5.036 0 0 0 119.027 27.563 A 6.536 6.536 0 0 0 120.339 27.44 Q 121.115 27.281 121.702 26.915 A 3.321 3.321 0 0 0 122.544 26.168 Q 123.662 24.774 123.765 21.431 Z M 141.237 18.068 L 150.015 18.068 Q 149.984 16.358 149.341 15.224 A 3.928 3.928 0 0 0 148.805 14.489 Q 147.636 13.228 145.646 13.228 A 5.051 5.051 0 0 0 144.328 13.391 A 3.626 3.626 0 0 0 142.529 14.489 Q 141.401 15.75 141.237 18.068 Z"/></svg>